<svg version="1" xmlns="http://www.w3.org/2000/svg" width="682.667" height="682.667" viewBox="0 0 512.000000 512.000000"><path d="M105 3.7C92.2 6 71.7 13.4 64 18.4c-1.9 1.2-6.2 4-9.5 6.1-8.9 5.8-24 20.9-30.5 30.5C12.1 72.6 6 87.7 2.7 107.5c-1.6 10-1.6 289 0 299 1.2 7 2.9 14 5.6 22.5 2.7 8.6 12.8 26.8 18.5 33.6 3.2 3.8 8.6 8.8 12 11.1 3.5 2.3 7.8 5.5 9.6 7.1 8.3 7.3 34.4 22.2 38.8 22.2.6 0 1.9.6 2.7 1.3.9.8 3.5 1.9 5.8 2.6 2.4.6 4.7 2.1 5.3 3.1 1.1 2 2.9 2 146.3 1.9 143.6-.1 169.2-.4 170.5-2.6.8-1.2 11.3-6.3 13-6.3.7 0 4.9-1.7 9.5-3.9 13.2-6.1 33.7-20.3 33.7-23.3 0-.6 3.1-4.4 7-8.5 7.3-7.9 9.2-10.6 16.5-24.8 6-11.5 9.4-22 11.8-36 1.6-10 1.6-289 0-299C506 87.9 499.7 72.4 488 55c-6.6-9.7-21.6-24.7-30.5-30.5-3.3-2.1-7.1-4.6-8.5-5.5-6.6-4.4-16.4-8.5-31-12.9l-8.5-2.5-151-.2c-83-.1-152.1.1-153.5.3zm298.1 35.2c18.5 3.4 32.9 11 46.4 24.6 12 12.1 18.9 24 23.3 40.4 2.5 9.3 2.6 10.6 3 47.9.3 29.1.1 38.6-.8 39.7-1.1 1.3-10.6 1.5-67.4 1.5h-66.2l-10-9.8c-11.3-11.1-15.7-14.3-29.5-21.3-12.2-6.1-26.2-9.8-39.4-10.5-9.1-.5-10.4-.4-14.5 1.8-3.3 1.7-5.1 3.5-6.7 6.8-6.2 12.1 2 25 16 25 16.7 0 36.2 8.4 48.7 21 27.5 27.6 28.8 70.7 2.8 98.5-16 17.2-33.1 24.3-56.1 23.3-20.1-.9-35.2-8-49.5-23.3-11.1-11.9-17.3-26.5-18.8-44.5-.3-4.7-1.3-9.7-2-11.1-1.8-3.6-6.7-7.6-10.4-8.4-1.6-.4-3.2-1.1-3.5-1.6-2.1-3.3 9.9-31 14.7-34 .6-.4 2.9.2 5.2 1.2 5.3 2.4 9 2.4 14.2-.1 6.3-3.1 9.9-8.9 9.9-16.1 0-4.8-.5-6.4-3.1-10-5.7-7.9-14.1-10-21.8-5.6-4.9 2.8-7.3 6-9.6 12.8l-1.7 5.4-68.8.3c-50 .1-69.2-.1-70.1-.9-1.1-.9-1.4-7.4-1.4-33.3 0-17.6.5-36.4 1-41.6 2.4-22.5 11.8-41.4 27.8-56C78.7 48.3 90.3 42.4 108 39c8.9-1.7 18.3-1.8 147.1-1.9 131.3-.1 138 0 148 1.8z"/><path d="M377 105.6c-13.8 6-18 24-8.3 35.3 7.3 8.6 18 10.9 27.8 5.9 6-3.1 7.7-4.9 10.4-10.8 5-11.1.1-24.3-11.1-30.1-4.5-2.3-13.8-2.5-18.8-.3z"/></svg>